<mxfile host="app.diagrams.net" agent="Mozilla/5.0 (Windows NT 10.0; Win64; x64) AppleWebKit/537.36 (KHTML, like Gecko) Chrome/130.0.0.0 Safari/537.36" version="24.8.3">
  <diagram name="Página-1" id="Mkc9nX4HWOvUuhRCaWAJ">
    <mxGraphModel dx="1050" dy="522" grid="1" gridSize="10" guides="1" tooltips="1" connect="1" arrows="1" fold="1" page="1" pageScale="1" pageWidth="827" pageHeight="1169" math="0" shadow="0">
      <root>
        <mxCell id="0" />
        <mxCell id="1" parent="0" />
        <mxCell id="C3GCrD2o8ONIPfei5NRW-18" style="edgeStyle=orthogonalEdgeStyle;rounded=0;orthogonalLoop=1;jettySize=auto;html=1;entryX=0;entryY=0.5;entryDx=0;entryDy=0;" edge="1" parent="1" source="C3GCrD2o8ONIPfei5NRW-1" target="C3GCrD2o8ONIPfei5NRW-6">
          <mxGeometry relative="1" as="geometry" />
        </mxCell>
        <mxCell id="C3GCrD2o8ONIPfei5NRW-1" value="Visitante&lt;div&gt;da Plataforma&lt;/div&gt;" style="shape=umlActor;verticalLabelPosition=bottom;verticalAlign=top;html=1;outlineConnect=0;" vertex="1" parent="1">
          <mxGeometry x="110" y="160" width="30" height="60" as="geometry" />
        </mxCell>
        <mxCell id="C3GCrD2o8ONIPfei5NRW-19" style="edgeStyle=orthogonalEdgeStyle;rounded=0;orthogonalLoop=1;jettySize=auto;html=1;entryX=1;entryY=0.5;entryDx=0;entryDy=0;" edge="1" parent="1" source="C3GCrD2o8ONIPfei5NRW-2" target="C3GCrD2o8ONIPfei5NRW-11">
          <mxGeometry relative="1" as="geometry" />
        </mxCell>
        <mxCell id="C3GCrD2o8ONIPfei5NRW-21" style="edgeStyle=orthogonalEdgeStyle;rounded=0;orthogonalLoop=1;jettySize=auto;html=1;" edge="1" parent="1" source="C3GCrD2o8ONIPfei5NRW-2" target="C3GCrD2o8ONIPfei5NRW-9">
          <mxGeometry relative="1" as="geometry" />
        </mxCell>
        <mxCell id="C3GCrD2o8ONIPfei5NRW-22" style="edgeStyle=orthogonalEdgeStyle;rounded=0;orthogonalLoop=1;jettySize=auto;html=1;" edge="1" parent="1" source="C3GCrD2o8ONIPfei5NRW-2" target="C3GCrD2o8ONIPfei5NRW-10">
          <mxGeometry relative="1" as="geometry" />
        </mxCell>
        <mxCell id="C3GCrD2o8ONIPfei5NRW-2" value="Usuário&amp;nbsp;" style="shape=umlActor;verticalLabelPosition=bottom;verticalAlign=top;html=1;outlineConnect=0;" vertex="1" parent="1">
          <mxGeometry x="700" y="200" width="30" height="60" as="geometry" />
        </mxCell>
        <mxCell id="C3GCrD2o8ONIPfei5NRW-6" value="Resgistrar Usuário&amp;nbsp;" style="ellipse;whiteSpace=wrap;html=1;" vertex="1" parent="1">
          <mxGeometry x="220" y="150" width="120" height="80" as="geometry" />
        </mxCell>
        <mxCell id="C3GCrD2o8ONIPfei5NRW-8" value="Notificar E-mail" style="ellipse;whiteSpace=wrap;html=1;" vertex="1" parent="1">
          <mxGeometry x="470" y="330" width="120" height="80" as="geometry" />
        </mxCell>
        <mxCell id="C3GCrD2o8ONIPfei5NRW-9" value="Filtrar Busca Avança&amp;nbsp;" style="ellipse;whiteSpace=wrap;html=1;" vertex="1" parent="1">
          <mxGeometry x="470" y="240" width="120" height="80" as="geometry" />
        </mxCell>
        <mxCell id="C3GCrD2o8ONIPfei5NRW-10" value="Recuperar Senha" style="ellipse;whiteSpace=wrap;html=1;" vertex="1" parent="1">
          <mxGeometry x="470" y="150" width="120" height="80" as="geometry" />
        </mxCell>
        <mxCell id="C3GCrD2o8ONIPfei5NRW-11" value="Autenticar Usuário&amp;nbsp;" style="ellipse;whiteSpace=wrap;html=1;" vertex="1" parent="1">
          <mxGeometry x="470" y="60" width="120" height="80" as="geometry" />
        </mxCell>
        <mxCell id="C3GCrD2o8ONIPfei5NRW-20" style="edgeStyle=orthogonalEdgeStyle;rounded=0;orthogonalLoop=1;jettySize=auto;html=1;entryX=1;entryY=0.625;entryDx=0;entryDy=0;entryPerimeter=0;" edge="1" parent="1" source="C3GCrD2o8ONIPfei5NRW-2" target="C3GCrD2o8ONIPfei5NRW-8">
          <mxGeometry relative="1" as="geometry" />
        </mxCell>
      </root>
    </mxGraphModel>
  </diagram>
</mxfile>
